<mxfile host="app.diagrams.net" agent="Mozilla/5.0 (X11; Linux x86_64; rv:128.0) Gecko/20100101 Firefox/128.0" version="28.2.5">
  <diagram name="Page-1" id="c4acf3e9-155e-7222-9cf6-157b1a14988f">
    <mxGraphModel dx="983" dy="532" grid="1" gridSize="10" guides="1" tooltips="1" connect="1" arrows="1" fold="1" page="1" pageScale="1" pageWidth="850" pageHeight="1100" background="none" math="0" shadow="0">
      <root>
        <mxCell id="0" />
        <mxCell id="1" parent="0" />
        <mxCell id="j8_C2RMPdnLGKdXgK676-1" value="Asignatura" style="swimlane;fontStyle=1;align=center;verticalAlign=top;childLayout=stackLayout;horizontal=1;startSize=26;horizontalStack=0;resizeParent=1;resizeParentMax=0;resizeLast=0;collapsible=1;marginBottom=0;whiteSpace=wrap;html=1;" vertex="1" parent="1">
          <mxGeometry x="90" y="90" width="160" height="190" as="geometry" />
        </mxCell>
        <mxCell id="j8_C2RMPdnLGKdXgK676-2" value="&lt;div&gt;+ codigo: uuid&lt;/div&gt;" style="text;strokeColor=none;fillColor=none;align=left;verticalAlign=top;spacingLeft=4;spacingRight=4;overflow=hidden;rotatable=0;points=[[0,0.5],[1,0.5]];portConstraint=eastwest;whiteSpace=wrap;html=1;" vertex="1" parent="j8_C2RMPdnLGKdXgK676-1">
          <mxGeometry y="26" width="160" height="26" as="geometry" />
        </mxCell>
        <mxCell id="j8_C2RMPdnLGKdXgK676-6" value="+ creditos: int" style="text;strokeColor=none;fillColor=none;align=left;verticalAlign=top;spacingLeft=4;spacingRight=4;overflow=hidden;rotatable=0;points=[[0,0.5],[1,0.5]];portConstraint=eastwest;whiteSpace=wrap;html=1;" vertex="1" parent="j8_C2RMPdnLGKdXgK676-1">
          <mxGeometry y="52" width="160" height="26" as="geometry" />
        </mxCell>
        <mxCell id="j8_C2RMPdnLGKdXgK676-9" value="+ dept: Departamento" style="text;strokeColor=none;fillColor=none;align=left;verticalAlign=top;spacingLeft=4;spacingRight=4;overflow=hidden;rotatable=0;points=[[0,0.5],[1,0.5]];portConstraint=eastwest;whiteSpace=wrap;html=1;" vertex="1" parent="j8_C2RMPdnLGKdXgK676-1">
          <mxGeometry y="78" width="160" height="26" as="geometry" />
        </mxCell>
        <mxCell id="j8_C2RMPdnLGKdXgK676-8" value="+ obligatoria: bool" style="text;strokeColor=none;fillColor=none;align=left;verticalAlign=top;spacingLeft=4;spacingRight=4;overflow=hidden;rotatable=0;points=[[0,0.5],[1,0.5]];portConstraint=eastwest;whiteSpace=wrap;html=1;" vertex="1" parent="j8_C2RMPdnLGKdXgK676-1">
          <mxGeometry y="104" width="160" height="26" as="geometry" />
        </mxCell>
        <mxCell id="j8_C2RMPdnLGKdXgK676-10" value="+ prereq: Asignatura[0..*]" style="text;strokeColor=none;fillColor=none;align=left;verticalAlign=top;spacingLeft=4;spacingRight=4;overflow=hidden;rotatable=0;points=[[0,0.5],[1,0.5]];portConstraint=eastwest;whiteSpace=wrap;html=1;" vertex="1" parent="j8_C2RMPdnLGKdXgK676-1">
          <mxGeometry y="130" width="160" height="26" as="geometry" />
        </mxCell>
        <mxCell id="j8_C2RMPdnLGKdXgK676-15" style="edgeStyle=orthogonalEdgeStyle;rounded=0;orthogonalLoop=1;jettySize=auto;html=1;dashed=1;" edge="1" parent="j8_C2RMPdnLGKdXgK676-1" source="j8_C2RMPdnLGKdXgK676-11">
          <mxGeometry relative="1" as="geometry">
            <mxPoint x="80" as="targetPoint" />
            <Array as="points">
              <mxPoint x="-30" y="169" />
              <mxPoint x="-30" y="-30" />
              <mxPoint x="80" y="-30" />
            </Array>
          </mxGeometry>
        </mxCell>
        <mxCell id="j8_C2RMPdnLGKdXgK676-11" value="+ coreq: Asignatura[0..*]" style="text;strokeColor=none;fillColor=none;align=left;verticalAlign=top;spacingLeft=4;spacingRight=4;overflow=hidden;rotatable=0;points=[[0,0.5],[1,0.5]];portConstraint=eastwest;whiteSpace=wrap;html=1;" vertex="1" parent="j8_C2RMPdnLGKdXgK676-1">
          <mxGeometry y="156" width="160" height="26" as="geometry" />
        </mxCell>
        <mxCell id="j8_C2RMPdnLGKdXgK676-3" value="" style="line;strokeWidth=1;fillColor=none;align=left;verticalAlign=middle;spacingTop=-1;spacingLeft=3;spacingRight=3;rotatable=0;labelPosition=right;points=[];portConstraint=eastwest;strokeColor=inherit;" vertex="1" parent="j8_C2RMPdnLGKdXgK676-1">
          <mxGeometry y="182" width="160" height="8" as="geometry" />
        </mxCell>
        <mxCell id="j8_C2RMPdnLGKdXgK676-13" style="edgeStyle=orthogonalEdgeStyle;rounded=0;orthogonalLoop=1;jettySize=auto;html=1;entryX=0.5;entryY=0;entryDx=0;entryDy=0;dashed=1;exitX=0;exitY=0.5;exitDx=0;exitDy=0;" edge="1" parent="j8_C2RMPdnLGKdXgK676-1" source="j8_C2RMPdnLGKdXgK676-10">
          <mxGeometry relative="1" as="geometry">
            <mxPoint x="80" as="targetPoint" />
            <mxPoint x="160" y="143" as="sourcePoint" />
            <Array as="points">
              <mxPoint x="-20" y="143" />
              <mxPoint x="-20" y="-20" />
              <mxPoint x="80" y="-20" />
            </Array>
          </mxGeometry>
        </mxCell>
        <mxCell id="j8_C2RMPdnLGKdXgK676-17" value="Horario" style="swimlane;fontStyle=0;childLayout=stackLayout;horizontal=1;startSize=26;fillColor=none;horizontalStack=0;resizeParent=1;resizeParentMax=0;resizeLast=0;collapsible=1;marginBottom=0;whiteSpace=wrap;html=1;" vertex="1" parent="1">
          <mxGeometry x="390" y="50" width="240" height="104" as="geometry" />
        </mxCell>
        <mxCell id="j8_C2RMPdnLGKdXgK676-18" value="+ grupo: int" style="text;strokeColor=none;fillColor=none;align=left;verticalAlign=top;spacingLeft=4;spacingRight=4;overflow=hidden;rotatable=0;points=[[0,0.5],[1,0.5]];portConstraint=eastwest;whiteSpace=wrap;html=1;" vertex="1" parent="j8_C2RMPdnLGKdXgK676-17">
          <mxGeometry y="26" width="240" height="26" as="geometry" />
        </mxCell>
        <mxCell id="j8_C2RMPdnLGKdXgK676-19" value="+ asignatura: Asignatura" style="text;strokeColor=none;fillColor=none;align=left;verticalAlign=top;spacingLeft=4;spacingRight=4;overflow=hidden;rotatable=0;points=[[0,0.5],[1,0.5]];portConstraint=eastwest;whiteSpace=wrap;html=1;" vertex="1" parent="j8_C2RMPdnLGKdXgK676-17">
          <mxGeometry y="52" width="240" height="26" as="geometry" />
        </mxCell>
        <mxCell id="j8_C2RMPdnLGKdXgK676-20" value="+ horas: {hora: int, aula: string, }" style="text;strokeColor=none;fillColor=none;align=left;verticalAlign=top;spacingLeft=4;spacingRight=4;overflow=hidden;rotatable=0;points=[[0,0.5],[1,0.5]];portConstraint=eastwest;whiteSpace=wrap;html=1;" vertex="1" parent="j8_C2RMPdnLGKdXgK676-17">
          <mxGeometry y="78" width="240" height="26" as="geometry" />
        </mxCell>
        <mxCell id="j8_C2RMPdnLGKdXgK676-21" style="edgeStyle=orthogonalEdgeStyle;rounded=0;orthogonalLoop=1;jettySize=auto;html=1;dashed=1;" edge="1" parent="1" source="j8_C2RMPdnLGKdXgK676-19">
          <mxGeometry relative="1" as="geometry">
            <mxPoint x="170" y="90" as="targetPoint" />
            <Array as="points">
              <mxPoint x="320" y="120" />
              <mxPoint x="320" y="50" />
              <mxPoint x="170" y="50" />
              <mxPoint x="170" y="87" />
            </Array>
          </mxGeometry>
        </mxCell>
        <mxCell id="j8_C2RMPdnLGKdXgK676-22" value="Departamento" style="swimlane;fontStyle=0;childLayout=stackLayout;horizontal=1;startSize=26;fillColor=none;horizontalStack=0;resizeParent=1;resizeParentMax=0;resizeLast=0;collapsible=1;marginBottom=0;whiteSpace=wrap;html=1;" vertex="1" parent="1">
          <mxGeometry x="390" y="204" width="140" height="104" as="geometry" />
        </mxCell>
        <mxCell id="j8_C2RMPdnLGKdXgK676-23" value="+ nombre: string" style="text;strokeColor=none;fillColor=none;align=left;verticalAlign=top;spacingLeft=4;spacingRight=4;overflow=hidden;rotatable=0;points=[[0,0.5],[1,0.5]];portConstraint=eastwest;whiteSpace=wrap;html=1;" vertex="1" parent="j8_C2RMPdnLGKdXgK676-22">
          <mxGeometry y="26" width="140" height="26" as="geometry" />
        </mxCell>
        <mxCell id="j8_C2RMPdnLGKdXgK676-24" value="+ field: type" style="text;strokeColor=none;fillColor=none;align=left;verticalAlign=top;spacingLeft=4;spacingRight=4;overflow=hidden;rotatable=0;points=[[0,0.5],[1,0.5]];portConstraint=eastwest;whiteSpace=wrap;html=1;" vertex="1" parent="j8_C2RMPdnLGKdXgK676-22">
          <mxGeometry y="52" width="140" height="26" as="geometry" />
        </mxCell>
        <mxCell id="j8_C2RMPdnLGKdXgK676-25" value="+ field: type" style="text;strokeColor=none;fillColor=none;align=left;verticalAlign=top;spacingLeft=4;spacingRight=4;overflow=hidden;rotatable=0;points=[[0,0.5],[1,0.5]];portConstraint=eastwest;whiteSpace=wrap;html=1;" vertex="1" parent="j8_C2RMPdnLGKdXgK676-22">
          <mxGeometry y="78" width="140" height="26" as="geometry" />
        </mxCell>
        <mxCell id="j8_C2RMPdnLGKdXgK676-26" style="edgeStyle=orthogonalEdgeStyle;rounded=0;orthogonalLoop=1;jettySize=auto;html=1;entryX=0.5;entryY=0;entryDx=0;entryDy=0;dashed=1;" edge="1" parent="1" source="j8_C2RMPdnLGKdXgK676-9" target="j8_C2RMPdnLGKdXgK676-22">
          <mxGeometry relative="1" as="geometry" />
        </mxCell>
        <mxCell id="j8_C2RMPdnLGKdXgK676-27" value="1." style="text;html=1;align=center;verticalAlign=middle;resizable=0;points=[];autosize=1;strokeColor=none;fillColor=none;" vertex="1" parent="1">
          <mxGeometry x="30" y="10" width="30" height="30" as="geometry" />
        </mxCell>
        <mxCell id="j8_C2RMPdnLGKdXgK676-28" value="&lt;div&gt;2.&lt;/div&gt;" style="text;html=1;align=center;verticalAlign=middle;resizable=0;points=[];autosize=1;strokeColor=none;fillColor=none;" vertex="1" parent="1">
          <mxGeometry x="30" y="328" width="30" height="30" as="geometry" />
        </mxCell>
        <mxCell id="j8_C2RMPdnLGKdXgK676-33" value="&lt;div style=&quot;box-sizing: border-box; width: 100%; background: rgb(228, 228, 228); padding: 2px;&quot;&gt;A&lt;/div&gt;&lt;table style=&quot;width:100%;font-size:1em;&quot; cellpadding=&quot;2&quot; cellspacing=&quot;0&quot;&gt;&lt;tbody&gt;&lt;tr&gt;&lt;td&gt;&lt;br&gt;&lt;/td&gt;&lt;td&gt;&lt;br&gt;&lt;/td&gt;&lt;/tr&gt;&lt;tr&gt;&lt;td&gt;&lt;br&gt;&lt;/td&gt;&lt;td&gt;&lt;br&gt;&lt;/td&gt;&lt;/tr&gt;&lt;tr&gt;&lt;td&gt;&lt;/td&gt;&lt;td&gt;&lt;br&gt;&lt;/td&gt;&lt;/tr&gt;&lt;/tbody&gt;&lt;/table&gt;" style="verticalAlign=top;align=left;overflow=fill;html=1;whiteSpace=wrap;" vertex="1" parent="1">
          <mxGeometry x="100" y="400" width="80" height="50" as="geometry" />
        </mxCell>
        <mxCell id="j8_C2RMPdnLGKdXgK676-34" style="edgeStyle=orthogonalEdgeStyle;rounded=0;orthogonalLoop=1;jettySize=auto;html=1;exitX=0.5;exitY=1;exitDx=0;exitDy=0;" edge="1" parent="1" source="j8_C2RMPdnLGKdXgK676-33" target="j8_C2RMPdnLGKdXgK676-33">
          <mxGeometry relative="1" as="geometry" />
        </mxCell>
        <mxCell id="j8_C2RMPdnLGKdXgK676-35" value="&lt;div style=&quot;box-sizing: border-box; width: 100%; background: rgb(228, 228, 228); padding: 2px;&quot;&gt;B&lt;/div&gt;&lt;table style=&quot;width:100%;font-size:1em;&quot; cellpadding=&quot;2&quot; cellspacing=&quot;0&quot;&gt;&lt;tbody&gt;&lt;tr&gt;&lt;td&gt;&lt;br&gt;&lt;/td&gt;&lt;td&gt;&lt;br&gt;&lt;/td&gt;&lt;/tr&gt;&lt;tr&gt;&lt;td&gt;&lt;br&gt;&lt;/td&gt;&lt;td&gt;&lt;br&gt;&lt;/td&gt;&lt;/tr&gt;&lt;tr&gt;&lt;td&gt;&lt;/td&gt;&lt;td&gt;&lt;br&gt;&lt;/td&gt;&lt;/tr&gt;&lt;/tbody&gt;&lt;/table&gt;" style="verticalAlign=top;align=left;overflow=fill;html=1;whiteSpace=wrap;" vertex="1" parent="1">
          <mxGeometry x="345" y="400" width="80" height="50" as="geometry" />
        </mxCell>
        <mxCell id="j8_C2RMPdnLGKdXgK676-36" value="&lt;div style=&quot;box-sizing: border-box; width: 100%; background: rgb(228, 228, 228); padding: 2px;&quot;&gt;C&lt;/div&gt;&lt;table style=&quot;width:100%;font-size:1em;&quot; cellpadding=&quot;2&quot; cellspacing=&quot;0&quot;&gt;&lt;tbody&gt;&lt;tr&gt;&lt;td&gt;&lt;br&gt;&lt;/td&gt;&lt;td&gt;&lt;br&gt;&lt;/td&gt;&lt;/tr&gt;&lt;tr&gt;&lt;td&gt;&lt;br&gt;&lt;/td&gt;&lt;td&gt;&lt;br&gt;&lt;/td&gt;&lt;/tr&gt;&lt;tr&gt;&lt;td&gt;&lt;/td&gt;&lt;td&gt;&lt;br&gt;&lt;/td&gt;&lt;/tr&gt;&lt;/tbody&gt;&lt;/table&gt;" style="verticalAlign=top;align=left;overflow=fill;html=1;whiteSpace=wrap;" vertex="1" parent="1">
          <mxGeometry x="230" y="530" width="80" height="50" as="geometry" />
        </mxCell>
        <mxCell id="j8_C2RMPdnLGKdXgK676-37" value="R" style="html=1;whiteSpace=wrap;aspect=fixed;shape=isoRectangle;" vertex="1" parent="1">
          <mxGeometry x="245" y="460" width="50" height="30" as="geometry" />
        </mxCell>
        <mxCell id="j8_C2RMPdnLGKdXgK676-38" style="edgeStyle=orthogonalEdgeStyle;rounded=0;orthogonalLoop=1;jettySize=auto;html=1;entryX=-0.007;entryY=0.468;entryDx=0;entryDy=0;entryPerimeter=0;" edge="1" parent="1" source="j8_C2RMPdnLGKdXgK676-33" target="j8_C2RMPdnLGKdXgK676-37">
          <mxGeometry relative="1" as="geometry">
            <Array as="points">
              <mxPoint x="210" y="425" />
              <mxPoint x="210" y="475" />
              <mxPoint x="245" y="475" />
            </Array>
          </mxGeometry>
        </mxCell>
        <mxCell id="j8_C2RMPdnLGKdXgK676-39" style="edgeStyle=orthogonalEdgeStyle;rounded=0;orthogonalLoop=1;jettySize=auto;html=1;entryX=0.949;entryY=0.506;entryDx=0;entryDy=0;entryPerimeter=0;" edge="1" parent="1" source="j8_C2RMPdnLGKdXgK676-35" target="j8_C2RMPdnLGKdXgK676-37">
          <mxGeometry relative="1" as="geometry">
            <Array as="points">
              <mxPoint x="320" y="425" />
              <mxPoint x="320" y="475" />
              <mxPoint x="292" y="475" />
            </Array>
          </mxGeometry>
        </mxCell>
        <mxCell id="j8_C2RMPdnLGKdXgK676-40" style="edgeStyle=orthogonalEdgeStyle;rounded=0;orthogonalLoop=1;jettySize=auto;html=1;entryX=0.516;entryY=0.864;entryDx=0;entryDy=0;entryPerimeter=0;" edge="1" parent="1" source="j8_C2RMPdnLGKdXgK676-36" target="j8_C2RMPdnLGKdXgK676-37">
          <mxGeometry relative="1" as="geometry" />
        </mxCell>
        <mxCell id="j8_C2RMPdnLGKdXgK676-42" value="Text" style="text;html=1;align=center;verticalAlign=middle;whiteSpace=wrap;rounded=0;" vertex="1" parent="1">
          <mxGeometry x="170" y="400" width="60" height="30" as="geometry" />
        </mxCell>
        <mxCell id="j8_C2RMPdnLGKdXgK676-43" value="(2,3)" style="text;html=1;align=center;verticalAlign=middle;resizable=0;points=[];autosize=1;strokeColor=none;fillColor=none;" vertex="1" parent="1">
          <mxGeometry x="265" y="500" width="50" height="30" as="geometry" />
        </mxCell>
        <mxCell id="j8_C2RMPdnLGKdXgK676-45" value="&lt;div&gt;3.&lt;/div&gt;&lt;div&gt;Instancias maximas: 2&lt;/div&gt;&lt;div&gt;Instancias minimas: 0&lt;/div&gt;&lt;div&gt;&lt;br&gt;&lt;/div&gt;&lt;div&gt;Maximas: 2&lt;/div&gt;&lt;div&gt;Minimas: 0&lt;br&gt;&lt;/div&gt;" style="text;html=1;align=left;verticalAlign=middle;whiteSpace=wrap;rounded=0;" vertex="1" parent="1">
          <mxGeometry x="40" y="630" width="140" height="90" as="geometry" />
        </mxCell>
        <mxCell id="j8_C2RMPdnLGKdXgK676-46" value="(0,1)" style="text;html=1;align=center;verticalAlign=middle;resizable=0;points=[];autosize=1;strokeColor=none;fillColor=none;" vertex="1" parent="1">
          <mxGeometry x="245" y="430" width="50" height="30" as="geometry" />
        </mxCell>
      </root>
    </mxGraphModel>
  </diagram>
</mxfile>
